<?xml version="1.0" encoding="UTF-8"?>
<svg id="Print" xmlns="http://www.w3.org/2000/svg" xmlns:xlink="http://www.w3.org/1999/xlink" viewBox="0 0 222 55">
  <defs>
    <style>
      .cls-1 {
        stroke: #c7d080;
      }

      .cls-1, .cls-2, .cls-3, .cls-4 {
        fill: none;
      }

      .cls-1, .cls-2, .cls-4 {
        stroke-miterlimit: 3.86;
        stroke-width: .11px;
      }

      .cls-2 {
        stroke: #565d30;
      }

      .cls-3, .cls-5, .cls-6, .cls-7, .cls-8, .cls-9, .cls-10, .cls-11 {
        stroke-width: 0px;
      }

      .cls-5 {
        fill: #565d30;
      }

      .cls-6 {
        fill: url(#Degradado_sin_nombre_15);
      }

      .cls-7 {
        fill: #97b24a;
      }

      .cls-7, .cls-9 {
        fill-rule: evenodd;
      }

      .cls-8 {
        fill: #b2c056;
      }

      .cls-9 {
        fill: #fff;
      }

      .cls-10 {
        fill: #c7d080;
      }

      .cls-12 {
        clip-path: url(#clippath);
      }

      .cls-11 {
        fill: #d8dda9;
      }

      .cls-4 {
        stroke: #b2c056;
      }
    </style>
    <linearGradient id="Degradado_sin_nombre_15" data-name="Degradado sin nombre 15" x1="-1.58" y1="27.5" x2="223.01" y2="27.5" gradientUnits="userSpaceOnUse">
      <stop offset="0" stop-color="#393f19"/>
      <stop offset="1" stop-color="#565d30"/>
    </linearGradient>
    <clipPath id="clippath">
      <rect class="cls-3" x="7.69" y="11.89" width="32.11" height="29.9"/>
    </clipPath>
  </defs>
  <rect class="cls-6" x="-1.58" y="-1.39" width="224.59" height="57.78"/>
  <g>
    <path class="cls-9" d="M46.87,19.43h6.99c2.81,0,4.75,1.34,4.75,4.06s-1.94,4.06-4.75,4.06h-6.99v-8.12ZM44.84,37.68h2.03v-8.51h7.44c3.82,0,6.33-2.09,6.33-5.68s-2.51-5.68-6.33-5.68h-9.47v19.86Z"/>
    <path class="cls-9" d="M75.45,23.32h-1.88v7.54c0,2.92-1.4,5.76-4.63,5.76-2.99,0-4.03-1.36-4.12-3.95v-9.35h-1.88v9.32c0,3.34,1.52,5.45,5.41,5.45,2.3,0,4.33-1.09,5.32-3.01h.06v2.59h1.73v-14.36Z"/>
    <path class="cls-9" d="M78.63,37.68h1.88v-8.37c.06-2.81,1.85-4.92,4.84-4.92s3.91,1.86,3.91,4.34v8.96h1.88v-9.24c0-3.42-1.31-5.54-5.65-5.54-2.18,0-4.24,1.17-4.93,2.89h-.06v-2.48h-1.88v14.36Z"/>
    <path class="cls-9" d="M97.35,19.01h-1.88s0,4.31,0,4.31h-2.69v1.48h2.69v9.82c-.03,2.45.84,3.23,3.35,3.23.57,0,1.11-.06,1.67-.06v-1.5c-.54.05-1.08.08-1.61.08-1.34-.08-1.52-.75-1.52-1.89v-9.68h3.14v-1.48h-3.14v-4.31Z"/>
    <path class="cls-9" d="M109.38,24.38c3.61,0,5.41,3.06,5.41,6.12s-1.79,6.12-5.41,6.12-5.41-3.06-5.41-6.12,1.79-6.12,5.41-6.12ZM109.38,22.9c-4.72,0-7.29,3.48-7.29,7.6s2.57,7.6,7.29,7.6,7.29-3.48,7.29-7.6-2.57-7.6-7.29-7.6Z"/>
    <g class="cls-12">
      <rect class="cls-10" x="6.49" y="10.75" width="17.36" height="15.8"/>
      <rect class="cls-4" x="6.49" y="10.75" width="17.36" height="15.8"/>
      <rect class="cls-11" x="23.77" y="10.78" width="16.65" height="15.78"/>
      <rect class="cls-5" x="6.48" y="26.56" width="17.35" height="15.8"/>
      <rect class="cls-1" x="6.48" y="26.56" width="17.35" height="15.8"/>
      <rect class="cls-8" x="23.77" y="26.56" width="16.65" height="15.79"/>
      <rect class="cls-4" x="23.77" y="26.56" width="16.65" height="15.79"/>
    </g>
    <path class="cls-5" d="M7.69,19.25c0-4.07,3.6-7.37,8.04-7.37s8.04,3.3,8.04,7.37-3.6,7.37-8.04,7.37-8.04-3.3-8.04-7.37Z"/>
    <path class="cls-2" d="M7.69,19.25c0-4.07,3.6-7.37,8.04-7.37s8.04,3.3,8.04,7.37-3.6,7.37-8.04,7.37-8.04-3.3-8.04-7.37Z"/>
    <polygon class="cls-5" points="25.53 41.88 25.53 34.27 25.53 26.66 32.6 30.46 39.68 34.27 32.6 38.07 25.53 41.88"/>
    <polygon class="cls-2" points="25.53 41.88 25.53 34.27 25.53 26.66 32.6 30.46 39.68 34.27 32.6 38.07 25.53 41.88"/>
    <path class="cls-7" d="M33.22,31.18c0-2.26-.77-4.33-2.4-5.89,4.15-.08,8.45-1.72,8.45-6.36,0-3.28-2.4-5.46-4.92-5.46-1.98,0-3.22,1.33-3.22,2.65,0,.86.74,1.33,1.39,1.33,1.05,0,1.47-.31,1.98-1.25.35-.66.58-.9,1.12-.9,1.2,0,2.4,1.17,2.4,2.85,0,2.81-2.17,4.37-6.04,4.37-1.47,0-3.18-.16-4.96-.16-3.06,0-5.93,1.79-5.93,5.46,0,2.42,1.43,4.06,3.53,4.06,1.05,0,2.09-.51,2.09-1.8s-.97-1.79-1.82-1.79c-.66,0-1.2.51-1.9.51-.54,0-1.05-.47-1.05-1.4,0-1.56,1.59-2.69,4.26-2.69,3.41,0,5.77,1.68,5.77,5.5,0,5.39-4.34,8.39-10.46,8.39-7.71,0-12.01-4.21-12.01-8.9,0-2.42.89-4.53,2.52-5.54,1.12,1.05,2.21,1.52,3.1,1.52,1.36,0,2.01-.7,2.01-1.68,0-1.21-1.01-1.91-2.56-1.91-.54,0-1.08.16-1.59.35-1.08-.94-1.51-1.87-1.51-3.32,0-2.69,1.86-3.82,3.56-3.82.66,0,1.32.23,1.9.7.74.59,1.08.7,1.67.7.89,0,1.2-.59,1.2-1.17,0-1.13-1.24-2.07-3.02-2.07-3.68,0-6.28,2.54-6.28,6.44,0,1.29.31,2.34.97,3.47-2.44,1.4-3.8,4.8-3.8,7.53,0,6.6,5.62,10.89,12.51,10.89,9.8,0,13.02-5.78,13.02-10.61Z"/>
    <path class="cls-9" d="M33.93,30.77c0-2.26-.78-4.33-2.4-5.89,4.15-.08,8.45-1.72,8.45-6.36,0-3.28-2.4-5.46-4.92-5.46-1.98,0-3.22,1.33-3.22,2.65,0,.86.74,1.33,1.39,1.33,1.05,0,1.47-.31,1.98-1.25.35-.66.58-.9,1.12-.9,1.2,0,2.4,1.17,2.4,2.85,0,2.81-2.17,4.37-6.04,4.37-1.47,0-3.18-.16-4.96-.16-3.06,0-5.93,1.79-5.93,5.46,0,2.42,1.43,4.06,3.53,4.06,1.05,0,2.09-.51,2.09-1.79s-.97-1.8-1.82-1.8c-.66,0-1.2.51-1.9.51-.54,0-1.05-.47-1.05-1.4,0-1.56,1.59-2.69,4.26-2.69,3.41,0,5.77,1.68,5.77,5.5,0,5.39-4.34,8.39-10.46,8.39-7.71,0-12.01-4.21-12.01-8.9,0-2.42.89-4.53,2.52-5.54,1.12,1.05,2.21,1.52,3.1,1.52,1.36,0,2.01-.7,2.01-1.68,0-1.21-1.01-1.91-2.56-1.91-.54,0-1.08.16-1.59.35-1.08-.94-1.51-1.87-1.51-3.32,0-2.69,1.86-3.82,3.56-3.82.66,0,1.32.23,1.9.7.74.59,1.08.7,1.67.7.89,0,1.2-.59,1.2-1.17,0-1.13-1.24-2.07-3.02-2.07-3.68,0-6.28,2.54-6.28,6.44,0,1.29.31,2.34.97,3.47-2.44,1.4-3.8,4.8-3.8,7.53,0,6.6,5.62,10.89,12.51,10.89,9.8,0,13.02-5.78,13.02-10.61Z"/>
    <path class="cls-9" d="M148.71,19.63l3.61,10.27h-7.34l3.74-10.27ZM140.27,37.76h1.91l2.25-6.23h8.49l2.27,6.23h1.91l-7.32-20.03h-1.99l-7.52,20.03Z"/>
    <path class="cls-9" d="M158.47,43.12h1.65v-8.11h.05c.71,2.08,2.67,3.17,4.68,3.17,4.1,0,6.06-3.56,6.06-7.66s-1.96-7.66-6.06-7.66c-2.17,0-4.05,1.21-4.81,3.17h-.05v-2.75h-1.51v19.84ZM169.26,30.52c0,3-1.28,6.17-4.42,6.17-3.5,0-4.73-3.17-4.73-6.17,0-3.28,1.1-6.17,4.73-6.17,3.13,0,4.42,3.17,4.42,6.17Z"/>
    <path class="cls-9" d="M174.96,27.71c.05-2.36,1.57-3.37,3.61-3.37,1.93,0,3.53.59,3.53,2.97,0,1.6-.76,1.79-2.12,1.96-3.55.45-7.24.59-7.24,4.66,0,2.92,2.04,4.24,4.52,4.24s3.76-1.07,4.91-2.95h.05c0,1.52.26,2.53,1.93,2.53.44,0,.71-.03,1.07-.11v-1.49c-.13.06-.34.11-.52.11-.65,0-.97-.39-.97-1.07v-7.69c0-3.87-2.59-4.66-4.96-4.66-3.08,0-5.3,1.46-5.46,4.85h1.65ZM182.09,32.15c.03,2.83-2.19,4.55-4.7,4.55-1.54,0-3-1.09-3-2.86,0-2.83,3.47-2.81,6.27-3.34.44-.08,1.18-.22,1.39-.64h.05v2.3Z"/>
    <path class="cls-9" d="M187.01,37.76h1.65v-7.72c0-3,2.22-5.39,5.2-5.22l.03-1.76c-2.43-.11-4.47,1.28-5.3,3.61h-.05v-3.39h-1.51v14.48Z"/>
    <path class="cls-9" d="M197.85,18.93h-1.65v4.13h-2.4l.04,1.74h2.37v9.86c-.03,2.47.73,3.25,2.93,3.25.5,0,.97-.06,1.46-.06v-1.51c-.47.06-.94.08-1.41.08-1.18-.08-1.33-.76-1.33-1.91v-9.72s2.73,0,2.73,0l-.05-1.74h-2.74l.06-4.13Z"/>
    <path class="cls-9" d="M203.93,29.51c.26-2.64,1.75-5.16,4.44-5.16s4.21,2.5,4.28,5.16h-8.73ZM214.3,31c.13-4.07-1.59-8.14-5.93-8.14s-6.09,3.84-6.09,7.66c0,4.12,1.8,7.66,6.09,7.66,3.4,0,5.17-1.91,5.88-5.19h-1.65c-.52,2.19-1.83,3.7-4.23,3.7-3.16,0-4.42-3.11-4.44-5.7h10.37Z"/>
    <path class="cls-7" d="M137.17,29.37c0-1.78-.61-3.41-1.9-4.64,3.28-.06,6.67-1.35,6.67-5.01,0-2.58-1.9-4.3-3.89-4.3-1.56,0-2.54,1.05-2.54,2.09,0,.68.58,1.04,1.1,1.04.83,0,1.16-.25,1.56-.98.28-.52.46-.71.89-.71.95,0,1.9.92,1.9,2.24,0,2.21-1.71,3.44-4.77,3.44-1.16,0-2.51-.12-3.92-.12-2.42,0-4.68,1.41-4.68,4.3,0,1.91,1.13,3.2,2.78,3.2.83,0,1.65-.4,1.65-1.41s-.77-1.41-1.44-1.41c-.52,0-.95.4-1.5.4-.43,0-.83-.37-.83-1.11,0-1.23,1.25-2.12,3.37-2.12,2.69,0,4.56,1.32,4.56,4.33,0,4.24-3.43,6.61-8.26,6.61-6.09,0-9.49-3.32-9.49-7.01,0-1.9.7-3.56,1.99-4.36.89.83,1.74,1.2,2.45,1.2,1.07,0,1.59-.55,1.59-1.32,0-.95-.8-1.51-2.02-1.51-.43,0-.86.12-1.25.28-.86-.74-1.19-1.47-1.19-2.61,0-2.12,1.47-3.01,2.82-3.01.52,0,1.04.18,1.5.55.58.46.86.55,1.32.55.7,0,.95-.46.95-.92,0-.89-.98-1.63-2.39-1.63-2.91,0-4.96,2-4.96,5.07,0,1.01.25,1.84.77,2.74-1.93,1.11-3,3.78-3,5.93,0,5.19,4.44,8.57,9.89,8.57,7.74,0,10.28-4.55,10.28-8.36Z"/>
  </g>
</svg>